<?xml version="1.0" encoding="utf-8"?>
<!-- Generator: Adobe Illustrator 26.5.0, SVG Export Plug-In . SVG Version: 6.00 Build 0)  -->
<svg version="1.1" id="Calque_1" xmlns="http://www.w3.org/2000/svg" xmlns:xlink="http://www.w3.org/1999/xlink" x="0px" y="0px"
	 viewBox="0 0 595.28 841.89" style="enable-background:new 0 0 595.28 841.89;" xml:space="preserve">
<style type="text/css">
	.st0{fill:#060606;}
	.st1{fill:#F5F5F5;}
	.st2{fill:#FDFDFD;}
	.st3{fill:#030303;}
</style>
<g>
	<g>
		<path d="M177.34,448.31c-14.69-0.03-29.44,0.66-43.79-3.59c-20.18-5.98-37.91-15.66-50.31-33.33c-4.51-6.43-7.64-13.47-8.27-21.44
			c-0.19-2.37,0.08-4.66,1.14-6.84c2.22-4.57,4.64-4.87,7.4-0.79c13.92,20.52,33.94,31.26,57.72,35.87
			c13.01,2.52,26.16,4.64,39.39,4.21c24.36-0.8,48.75-1.95,72.41-8.74c2.37-0.68,4.69-1.62,6.91-2.7c6.73-3.26,7.95-6.44,4.46-12.96
			c-2.76-5.15-4.82-10.31-4.06-16.28c0.95-7.47,2.29-14.75,7.46-20.74c4.89-5.66,10.21-4.66,14.87-1.74c3.78,2.37,6,6.05,7.69,9.96
			c4.4,10.21,5.28,21.25,6.9,32.06c0.42,2.78-1.23,5.94-2.19,8.85c-4.29,13.05-13.13,21.34-26.15,25.75
			c-16.45,5.57-33.26,8.99-50.54,10.71C204.72,447.94,191.05,448.36,177.34,448.31z"/>
		<path d="M387.04,469.49c4.41-15.08,4.23-29.13-5.05-41.98c-1.8-2.49-3.82-4.97-6.22-6.84c-10.89-8.45-7.85-32.55,7.56-38.88
			c5.09-2.09,9.41-1.01,12.93,3.32c3.89,4.79,5.05,10.8,7.41,16.28c1.04,2.41,1.91,4.92,3.21,7.19c2.32,4.07,5.49,6.35,10.71,6.13
			c9.55-0.41,19.14,0.09,28.59-1.87c6.95-1.44,7.8-2.96,6.67-10.02c-0.73-4.55-2.54-8.68-4.32-12.82
			c-1.98-4.62-3.26-9.38-3.73-14.36c-0.51-5.41,0.74-10.27,5.02-13.92c3.13-2.67,6.38-5.19,9.65-7.68c1.43-1.09,3.06-0.77,4.53,0.06
			c6.06,3.41,11.37,9.49,10.1,15.36c-2.94,13.59,5.38,23.37,8.91,34.68c3.01,9.64-1.44,24.62-10.11,29.8
			c-0.73,0.44-1.67,1.06-2.37,0.91c-10.48-2.15-20.3,1.15-30.19,3.65c-8.18,2.07-16.45,3.15-24.86,2.61
			c-3.14-0.2-4.33,0.7-3.56,3.87c1.81,7.45-0.3,14.56-2,21.69c-0.42,1.76-1.08,2.99-3.51,2.9
			C400.07,469.33,393.73,469.49,387.04,469.49z"/>
		<path d="M334.57,356.53c0,27.12-0.05,54.25,0.05,81.37c0.02,4.7-1.13,8.38-5.81,10.24c-5.14,2.05-12.13,0.97-15.26-2.41
			c-1.35-1.46-1.89-3.14-1.89-5.2c0.05-54.26,0.02-108.52,0.07-162.77c0-3.81,0.63-7.63,1.88-11.23c1.31-3.79,3.66-6.54,8.15-6.94
			c4.81-0.43,7.89,1.76,9.86,5.82c1.49,3.05,2.26,6.29,2.26,9.75c-0.04,27.13-0.02,54.25-0.02,81.38
			C334.09,356.53,334.33,356.53,334.57,356.53z"/>
		<path d="M488.79,511.21c0,5.43,0.04,9.26-0.01,13.09c-0.05,3.62-3.62,6.9-7.27,7.22c-3.74,0.33-5.45-1.55-6.02-4.87
			c-1.02-5.94-1.8-11.93-1.72-17.96c0.04-2.76-0.53-4.07-3.64-3.79c-8.2,0.74-16.42,1.3-24.64,1.86c-2.69,0.18-2.98,1.66-2.6,3.89
			c0.87,5.07,1.32,10.18,1.75,15.3c0.33,4.02-2.27,6.18-4.82,7.77c-2.49,1.54-4.9,0.26-6.15-2.86c-2.59-6.49-3.38-13.36-4.04-20.16
			c-1-10.38-2.13-20.79-2-31.26c0.01-1.17-0.27-2.64,0.31-3.44c1.38-1.92,2.19-4.82,5.29-4.69c2.97,0.13,3.49,2.7,4.22,4.91
			c1.39,4.18,2.4,8.48,2.56,12.86c0.15,3.96,1.34,5.82,5.7,5.22c8.45-1.16,16.96-1.9,25.5-1.89c1.91,0,2.62-0.64,2.54-2.56
			c-0.12-2.65-0.1-5.31,0.01-7.96c0.11-2.52,0.68-4.72,2.99-6.47c3.2-2.43,5.84-2.23,7.71,1.31c2.37,4.51,2.89,9.55,3.29,14.45
			C488.34,498.37,489.32,505.56,488.79,511.21z"/>
		<path d="M307.85,470.41c3.01,0.43,5.99,3.21,8.67,6.37c4.77,5.61,8.81,11.75,12.29,18.22c4.7,8.74,9.15,17.62,13.82,26.38
			c1.56,2.93,1.12,5.37-1.22,7.49c-2.41,2.18-5.04,1.89-7.64,0.29c-1.89-1.17-4.15-2.39-4.53-4.61c-0.71-4.14-3.42-3.78-6.41-3.74
			c-8.11,0.1-16.23,0.14-24.34-0.03c-2.38-0.05-3.68,0.66-4.77,2.76c-1.67,3.25-3.84,6.24-5.55,9.48c-1.69,3.2-4.42,2.69-6.86,1.9
			c-2.5-0.81-2.97-3.27-2.23-5.53c6.08-18.57,11.56-37.39,21.01-54.66C302.33,470.66,303.03,470.3,307.85,470.41z"/>
		<path d="M235.8,473.91c7.71-0.28,14.47,1.04,20.55,5.19c14.58,9.96,12.73,25.49,1.38,34.71c-2.8,2.28-2.39,3.1-0.52,5.56
			c2.21,2.91,5.88,5.09,5.83,9.44c-0.02,1.88,0.51,4.2-1.66,5.07c-1.89,0.76-4.05,0.46-5.89-0.8c-4.17-2.85-7.64-6.44-10.82-10.32
			c-1.39-1.69-8.45-2.99-10.18-1.95c-1.04,0.62-0.56,1.52-0.55,2.35c0.03,2.97-0.77,5.76-1.67,8.56c-0.93,2.9-2.49,4.17-5.73,4.24
			c-3.53,0.08-4.37-2.27-4.87-4.58c-1.41-6.52-2.54-12.99-2.25-19.85c0.42-9.83-0.38-19.72-0.93-29.57
			c-0.15-2.64,0.68-4.1,2.89-5.25C226.09,474.27,231.09,473.53,235.8,473.91z"/>
		<path d="M204.59,503.54c0.66,9.19,0.05,17.26-6.13,23.84c-14.35,15.29-38.23,11.84-47.45-6.97c-3.32-6.76-5.22-13.93-5.09-21.58
			c0.11-6.63,0.16-13.27-0.04-19.89c-0.08-2.75,0.77-4.78,3.27-5.5c2.32-0.67,4.24,0.8,5.63,2.59c2.97,3.84,3.87,8.49,4.57,13.11
			c0.8,5.23,0.95,10.53,1.05,15.84c0.11,5.93,2.51,11.26,6.95,15.15c9.96,8.72,21.13,2.25,23.96-7.77
			c1.55-5.5,0.11-10.81-0.33-16.17c-0.49-5.99-1.52-11.93-2.26-17.9c-0.33-2.67,0.76-4.49,3.41-5.36c2.87-0.95,5.43-1.2,7.29,1.89
			c3.93,6.52,4.47,13.85,5.12,21.13C204.8,498.72,204.59,501.54,204.59,503.54z"/>
		<path d="M224.42,365.48c-12.21,0.26-20.11-2.39-27.3-7.34c-1.25-0.86-2.08-1.43-1.52-3.44c4.26-15.12,13.31-24.99,29.18-28.15
			c7.9-1.57,14.8,0.93,21.38,4.47c8.03,4.33,8.06,4.67,4.49,13.04C244.7,358.04,235.08,364.99,224.42,365.48z"/>
		<path d="M145.21,325.71c15.31-0.12,24.33,5.7,31.16,15.31c2.44,3.44,4.65,7.11,5.76,11.31c0.41,1.53,0.73,2.77-0.87,3.84
			c-7.02,4.71-14.27,9.26-23.07,8.72c-16.41-1.02-25.07-6.42-31.4-21.21c-3.49-8.16-3.26-8.33,4.44-12.78
			C136.49,327.87,141.93,325.31,145.21,325.71z"/>
		<path d="M207.85,310.85c-0.45,12.78-6.47,23.37-17.66,31.19c-1.2,0.84-1.82,0.76-2.99-0.07c-13.3-9.47-19.55-21.9-16.31-38.36
			c1.46-7.44,6.12-12.93,11.64-17.61c6.55-5.56,6.75-5.42,13.18,0.32C202.75,292.61,207.06,300.34,207.85,310.85z"/>
		<path d="M427.81,331.44c-16.39-0.7-24.55-6.46-30.8-20.91c-2.98-6.89-2.58-6.94,4.24-10.91c21.48-12.51,41.15-0.43,48.39,19.52
			c0.74,2.03,0.5,3.3-1.49,4.65C441.84,328.05,435.29,331.42,427.81,331.44z"/>
		<path d="M481.43,331.2c-9.13-0.35-15.77-2.79-21.83-6.96c-1.08-0.75-1.88-1.11-1.35-3.02c4.06-14.54,12.7-24.14,28.03-26.77
			c7.68-1.32,14.52,1.25,20.95,5.07c6.09,3.61,6.03,3.71,3.49,10.3C505.2,324.15,493.87,331.93,481.43,331.2z"/>
		<path d="M88.1,472.12c13.07-0.85,26.14,0.21,39.21,0.01c1.32-0.02,2.68-0.1,3.97,0.15c3.94,0.76,6.4,3.68,6.03,6.95
			c-0.37,3.24-3.86,6.33-7.39,6.24c-4.71-0.12-9.43-0.33-14.12-0.78c-3.78-0.36-5.63,0.5-5.14,4.85c0.57,5.1,0.25,10.26,0.67,15.41
			c0.37,4.58-0.79,9.34-0.56,14.05c0.12,2.5,0.27,5,0.59,7.48c0.58,4.57-2.36,9.1-6.28,9.48c-4.43,0.43-7.63-2.77-7.58-8.16
			c0.11-12.97-0.72-25.97,0.78-38.9c0.37-3.16-0.26-4.49-3.85-4.24c-6.19,0.43-12.24-0.75-18.18-2.61c-3.18-1-4.16-2.92-3.73-5.95
			c0.45-3.17,2.76-3.88,5.42-3.94C81.31,472.06,84.71,472.12,88.1,472.12z"/>
		<path d="M376.32,511.27c0.06-7.22-0.38-14.48,0.8-21.64c0.69-4.2-0.88-5.23-4.86-4.98c-5.9,0.38-11.64-0.91-17.29-2.66
			c-3.22-1-4.02-3.08-3.57-6.05c0.45-2.93,2.61-3.78,5.1-3.79c17.35-0.06,34.69-0.09,52.04,0.01c4.73,0.03,7.85,3.03,7.65,6.77
			c-0.2,3.6-3.81,6.64-7.98,6.52c-5.15-0.15-10.31-0.38-15.45-0.76c-2.55-0.19-3.34,0.72-3.18,3.21c0.37,5.72,0.16,11.44,0.62,17.19
			c0.35,4.41-0.71,9.05-0.54,13.61c0.09,2.64,0.29,5.29,0.61,7.92c0.56,4.56-2.48,9.04-6.45,9.35c-4.27,0.33-7.31-2.74-7.45-7.88
			C376.21,522.48,376.32,516.87,376.32,511.27z"/>
		<path d="M336.63,503.91c7.13-0.96,13.77-2.59,20.07-5.46c6.28-2.86,11.84-6.86,16.99-10.97c0,8.06,0,16.06,0,24.06
			c0,1.71-1.47,1.99-2.56,2.63c-7.15,4.14-14.87,6.68-22.97,8.25c-2.19,0.42-2.88-0.74-3.61-2.23
			C342,514.94,339.45,509.7,336.63,503.91z"/>
		<path class="st0" d="M399.39,487.66c-1.71,3.32-4.25,5.87-6.47,8.68C390.22,488.16,391.36,486.55,399.39,487.66z"/>
		<path class="st1" d="M307.77,487.87c5.58,6.95,10.61,13.66,14.04,22.01c-7.81,0-15.18,0-22.99,0
			C301.72,502.75,304.61,495.65,307.77,487.87z"/>
		<path class="st2" d="M254.24,496.47c0.48,4.61-2.01,7.28-5.49,9.37c-4.36,2.61-9.35,3.08-14.17,4.15
			c-1.47,0.33-1.7-0.35-1.84-1.58c-0.79-7.43-1.63-14.86-2.52-22.28c-0.24-1.96,0.14-3.23,2.43-3c5.52,0.54,11.06,1.03,16,3.95
			C252.32,489.23,254.89,492,254.24,496.47z"/>
		<path class="st3" d="M317.83,507.4c-5.14,0-9.92,0-14.87,0C307.87,503.12,315.52,503.03,317.83,507.4z"/>
	</g>
</g>
</svg>
